<?xml version="1.0" encoding="utf-8"?>
<svg version="1.2" baseProfile="tiny" class="Volume" xmlns="http://www.w3.org/2000/svg" xmlns:xlink="http://www.w3.org/1999/xlink"
	 x="0px" y="0px" viewBox="0 0 331.3 331.3" xml:space="preserve">
<g class="volumebutton">	
	<rect class="novolumebutton" x="130.6" y="-33.6" transform="matrix(0.7071 0.7071 -0.7071 0.7071 165.6426 -68.6103)" fill="#FFFFFF" wclassth="70" height="398.5"/>
	<path class="middle" fill="#FFFFFF" d="M165.6,56.8c-60.1,0-108.8,48.7-108.8,108.8s48.7,108.8,108.8,108.8s108.8-48.7,108.8-108.8
		S225.7,56.8,165.6,56.8z M165.6,263.6c-54,0-97.9-43.9-97.9-97.9c0-54,43.9-97.9,97.9-97.9s97.9,43.9,97.9,97.9
		C263.6,219.6,219.6,263.6,165.6,263.6z"/>
	<path class="outter" fill="#FFFFFF" d="M165.6,24.7c-77.8,0-140.9,63.1-140.9,140.9s63.1,140.9,140.9,140.9s140.9-63.1,140.9-140.9
		S243.5,24.7,165.6,24.7z M251.8,251.8c-23,23-53.6,35.7-86.2,35.7s-63.1-12.7-86.2-35.7s-35.7-53.6-35.7-86.2s12.7-63.1,35.7-86.2
		c23-23,53.6-35.7,86.2-35.7s63.1,12.7,86.2,35.7c23,23,35.7,53.6,35.7,86.2S274.8,228.8,251.8,251.8z"/>
	<circle class="inner" fill="#FFFFFF" cx="165.6" cy="165.6" r="61.9"/>
</g>
</svg>
