<?xml version="1.0" encoding="utf-8"?>
<svg version="1.1" xmlns="http://www.w3.org/2000/svg" xmlns:xlink="http://www.w3.org/1999/xlink" x="0px" y="0px"
	 viewBox="0 0 500 500" enable-background="new 0 0 500 500" xml:space="preserve">
<g id="play">
	<polygon fill="#FFFFFF" points="36.7,0 36.7,493.1 463.3,246.6 	"/>
</g>
<g id="pause">
	<rect x="60.7" fill="#FFFFFF" width="127.3" height="494.8"/>
	<rect x="312" fill="#FFFFFF" width="127.3" height="494.8"/>
</g>
<g id="fullscreen">
	<polygon fill="#FFFFFF" points="2,220.1 2,-1 223.2,-1 	"/>
	<polygon fill="#FFFFFF" points="223.2,494.9 2,494.9 2,273.8 	"/>
	<polygon fill="#FFFFFF" points="498,273.8 498,494.9 276.8,494.9 	"/>
	<polygon fill="#FFFFFF" points="276.8,-1 498,-1 498,220.1 	"/>
</g>
<g id="nofullscreen">
	<polygon fill="#FFFFFF" points="276.8,495.9 276.8,274.8 497.9,274.8 	"/>
	<polygon fill="#FFFFFF" points="497.9,221.1 276.8,221.1 276.8,0 	"/>
	<polygon fill="#FFFFFF" points="223.2,0 223.2,221.1 2,221.1 	"/>
	<polygon fill="#FFFFFF" points="2,274.8 223.2,274.8 223.2,495.9 	"/>
</g>
<g id="volume">
	<polygon id="speaker" fill="#FFFFFF" points="72.2,329.7 1.7,329.7 2.1,165.2 72.2,165.2 213.7,-0.8 213.7,495.9 	"/>
	<path id="low" fill="#FFFFFF" d="M270.8,136.6c56.9,0,103.2,49.8,103.2,111.2S327.8,359,270.8,359V136.6z"/>
	<path id="high" fill="#FFFFFF" d="M266.9,497.4v-59.6c97.1,0,176-85.2,176-189.8s-79-189.8-176-189.8V-1.5
		c61.8,0,119.9,25.9,163.6,73s67.8,109.8,67.8,176.4s-24.2,129.2-67.9,176.4S328.6,497.4,266.9,497.4z"/>
</g>
<g id="muted">
	<polygon fill="#FFFFFF" points="85,329.7 14.5,329.7 15,165.2 85,165.2 226.5,-0.8 226.5,495.9 	"/>
	<polygon fill="#FFFFFF" points="450.6,357.6 384.2,285.9 317.8,357.6 283,320.1 349.5,248.4 283,176.8 317.8,139.3 
		384.2,211 450.6,139.3 485.5,176.8 419,248.4 485.5,320.1 	"/>
</g>
</svg>
